<?xml version="1.0" standalone="no"?>
<!DOCTYPE svg PUBLIC "-//W3C//DTD SVG 20010904//EN"
 "http://www.w3.org/TR/2001/REC-SVG-20010904/DTD/svg10.dtd">
<svg version="1.0"  xmlns="http://www.w3.org/2000/svg" 
 width="1131.000000pt" height="1600.000000pt" viewBox="0 0 1131.000000 1600.000000"
 preserveAspectRatio="xMidYMid meet">

<g transform="translate(0.000000,1600.000000) scale(0.100000,-0.100000)"
fill="#fff" stroke="none">
<path d="M5395 12170 c-458 -52 -883 -251 -1199 -564 -257 -253 -436 -562
-522 -896 -13 -52 -24 -98 -24 -102 0 -5 117 -8 259 -8 l259 0 32 98 c105 320
343 612 643 788 81 47 245 117 337 143 685 192 1412 -127 1716 -753 29 -60 65
-146 79 -192 l27 -84 259 0 c201 0 259 3 259 13 0 25 -59 235 -90 320 -70 192
-198 405 -347 578 -299 345 -699 565 -1173 644 -114 19 -404 27 -515 15z"/>
<path d="M5455 11473 c-141 -17 -303 -74 -441 -153 -104 -60 -119 -72 -226
-177 -125 -123 -218 -270 -274 -437 -40 -116 -58 -106 205 -106 l229 0 41 86
c52 108 161 224 259 273 135 68 354 91 522 56 209 -44 373 -191 443 -397 6
-16 26 -18 237 -18 179 0 230 3 230 13 0 31 -44 165 -75 232 -186 390 -587
640 -1020 633 -55 0 -113 -3 -130 -5z m346 -69 c291 -54 561 -241 706 -489 36
-62 103 -216 103 -239 0 -14 -19 -16 -177 -16 l-178 0 -23 53 c-54 124 -178
248 -308 308 -112 51 -175 63 -339 63 -130 -1 -160 -4 -230 -25 -99 -30 -196
-83 -265 -146 -53 -47 -134 -160 -159 -221 l-13 -32 -179 0 c-137 0 -179 3
-179 13 1 31 74 186 124 260 150 226 369 386 622 453 168 45 322 50 495 18z"/>
<path d="M3690 10465 l0 -45 250 0 250 0 0 45 0 45 -250 0 -250 0 0 -45z"/>
<path d="M4440 10465 l0 -45 250 0 250 0 0 45 0 45 -250 0 -250 0 0 -45z"/>
<path d="M6237 10503 c-2 -5 -4 -24 -3 -43 l1 -35 248 -3 247 -2 0 45 0 45
-244 0 c-135 0 -247 -3 -249 -7z"/>
<path d="M7030 10465 l0 -45 245 0 245 0 0 45 0 45 -245 0 -245 0 0 -45z"/>
<path d="M3717 10362 c-16 -17 -17 -85 -17 -774 0 -719 1 -756 18 -771 16 -15
46 -17 215 -17 210 0 220 2 232 53 3 12 4 354 3 760 -3 718 -4 739 -22 753
-16 11 -62 14 -216 14 -178 0 -198 -2 -213 -18z m101 -769 c2 -598 1 -661 -14
-667 -9 -3 -20 -4 -25 0 -11 6 -13 1317 -2 1328 4 4 14 5 23 4 13 -3 15 -77
18 -665z m136 651 c3 -9 6 -305 6 -659 0 -559 -2 -644 -15 -655 -12 -10 -18
-10 -30 0 -13 11 -15 97 -15 659 0 490 3 650 12 659 17 17 35 15 42 -4z m134
4 c9 -9 12 -169 12 -659 0 -562 -2 -648 -15 -659 -12 -10 -18 -10 -30 0 -13
11 -15 97 -15 659 0 636 2 671 30 671 3 0 11 -5 18 -12z"/>
<path d="M4467 10362 c-16 -17 -17 -85 -17 -775 l0 -756 22 -15 c18 -13 56
-16 208 -16 152 0 190 3 208 16 l22 15 0 758 c0 722 -1 759 -18 774 -16 15
-46 17 -214 17 -176 0 -196 -2 -211 -18z m101 -763 c2 -575 0 -658 -13 -669
-12 -10 -18 -10 -30 0 -13 11 -15 97 -15 665 0 358 3 655 7 659 4 4 16 6 28 4
20 -3 20 -7 23 -659z m136 645 c3 -9 6 -305 6 -659 0 -678 0 -676 -44 -659
-15 6 -16 66 -16 663 0 362 3 661 7 664 12 13 41 7 47 -9z m140 0 c3 -9 6
-302 6 -653 0 -671 -1 -684 -44 -668 -15 6 -16 63 -16 665 0 362 3 662 7 665
12 13 41 7 47 -9z"/>
<path d="M6257 10362 c-16 -17 -17 -85 -17 -775 l0 -756 22 -15 c18 -13 56
-16 208 -16 152 0 190 3 208 16 l22 15 0 758 c0 722 -1 759 -18 774 -16 15
-46 17 -214 17 -176 0 -196 -2 -211 -18z m101 -770 c2 -585 0 -663 -13 -668
-8 -4 -22 -1 -30 6 -13 11 -15 99 -15 659 0 670 0 676 40 669 13 -3 15 -82 18
-666z m140 0 c2 -608 1 -663 -14 -669 -10 -4 -22 0 -28 9 -8 11 -10 204 -8
672 l2 657 23 -3 22 -3 3 -663z m140 2 c2 -605 1 -662 -14 -668 -44 -17 -44
-19 -44 659 0 354 3 651 6 660 4 9 15 15 28 13 l21 -3 3 -661z"/>
<path d="M7047 10362 c-16 -17 -17 -85 -17 -770 0 -739 0 -752 20 -772 19 -19
33 -20 213 -20 151 0 197 3 213 14 19 14 19 34 19 776 0 742 0 762 -19 776
-16 11 -62 14 -216 14 -178 0 -198 -2 -213 -18z m98 -772 c0 -658 0 -665 -20
-665 -20 0 -20 8 -23 655 -1 360 0 661 3 668 3 8 13 12 22 10 17 -3 18 -42 18
-668z m143 3 c2 -598 1 -661 -14 -667 -9 -3 -20 -4 -25 0 -11 6 -13 1317 -2
1328 4 4 14 5 23 4 13 -3 15 -77 18 -665z m140 0 c2 -598 1 -661 -14 -667 -9
-3 -20 -4 -25 0 -11 6 -13 1317 -2 1328 4 4 14 5 23 4 13 -3 15 -77 18 -665z"/>
<path d="M3694 8756 c-3 -8 -4 -29 -2 -48 l3 -33 248 -3 247 -2 0 50 0 50
-245 0 c-202 0 -247 -3 -251 -14z"/>
<path d="M4444 8756 c-3 -8 -4 -29 -2 -48 l3 -33 245 0 245 0 0 45 0 45 -243
3 c-202 2 -243 0 -248 -12z"/>
<path d="M6237 8763 c-2 -5 -3 -26 -2 -48 l1 -40 245 0 244 0 0 45 0 45 -242
3 c-133 1 -243 -1 -246 -5z"/>
<path d="M7030 8720 l0 -50 245 0 245 0 0 50 0 50 -245 0 -245 0 0 -50z"/>
<path d="M3609 8486 c-63 -22 -108 -56 -134 -100 -22 -37 -25 -55 -25 -132 l0
-89 2135 0 2136 0 6 23 c10 41 -7 154 -29 194 -24 42 -77 83 -135 104 -55 19
-3899 20 -3954 0z"/>
<path d="M3157 8046 c-64 -18 -126 -63 -162 -121 -24 -40 -30 -61 -33 -122
l-4 -73 2623 2 2624 3 -1 73 c-2 62 -6 80 -31 120 -35 57 -106 107 -173 121
-80 17 -4779 14 -4843 -3z"/>
<path d="M4483 7356 c-20 -9 -40 -29 -50 -50 -19 -42 -21 -42 -65 -17 -18 11
-49 23 -69 26 -115 21 -208 -152 -184 -342 6 -46 13 -63 40 -90 l33 -33 201 0
c226 0 233 -2 247 -74 19 -102 -38 -169 -198 -236 -127 -53 -171 -94 -188
-173 -10 -41 -10 -66 0 -110 6 -31 15 -59 19 -61 4 -3 15 10 25 29 11 19 64
67 128 116 127 96 168 140 209 225 58 122 60 335 4 449 -37 76 -46 79 -233 83
-152 4 -163 5 -177 25 -18 25 -19 76 -4 110 25 56 95 53 183 -7 28 -19 63 -38
79 -41 37 -10 79 10 101 45 9 17 26 35 37 40 26 15 24 32 -9 64 -35 33 -86 41
-129 22z"/>
<path d="M2897 7153 c-33 -78 -40 -122 -26 -179 14 -54 65 -111 128 -143 31
-16 48 -36 77 -91 20 -38 63 -101 95 -140 33 -38 59 -72 59 -75 0 -3 -49 -5
-108 -5 -92 0 -114 -3 -152 -22 -52 -27 -96 -99 -106 -171 l-7 -47 251 0 251
0 20 26 c12 15 26 44 32 64 19 62 -1 104 -93 191 l-79 75 59 61 c150 153 163
314 31 403 -54 36 -69 56 -69 89 0 72 -71 -61 -78 -146 -6 -77 3 -101 64 -159
57 -55 64 -76 44 -130 -6 -15 -27 -43 -47 -61 l-36 -34 -34 33 c-67 64 -74 85
-71 200 3 126 -8 151 -92 208 -48 33 -60 47 -66 75 -3 19 -10 35 -14 35 -4 0
-19 -26 -33 -57z"/>
<path d="M3524 7159 c-19 -39 -28 -74 -32 -124 -3 -61 -1 -74 20 -104 12 -19
43 -49 68 -66 33 -23 46 -39 48 -61 6 -44 -14 -96 -54 -142 -49 -58 -17 -57
40 2 78 81 132 221 117 303 -11 57 -30 83 -98 135 -38 29 -59 52 -61 68 -7 46
-20 43 -48 -11z"/>
<path d="M5407 7190 c-46 -71 -61 -192 -31 -255 9 -19 38 -48 70 -69 48 -32
54 -40 54 -72 0 -39 -26 -96 -65 -143 -38 -45 -12 -38 40 10 65 60 119 172
123 258 4 85 -14 120 -92 181 -40 30 -63 57 -71 80 l-12 34 -16 -24z"/>
<path d="M8066 7150 c-56 -125 -40 -221 46 -276 55 -35 68 -52 68 -83 -1 -36
-32 -100 -69 -139 -39 -41 -39 -47 -2 -28 73 38 159 185 168 285 8 84 -19 139
-90 186 -51 34 -77 68 -77 100 0 31 -18 12 -44 -45z"/>
<path d="M8397 7183 c-25 -47 -47 -134 -47 -182 0 -62 28 -111 77 -137 l40
-21 -23 -39 c-39 -65 -48 -130 -30 -232 15 -87 68 -255 88 -279 8 -10 59 -13
193 -13 l184 0 20 26 c30 38 133 253 174 364 69 185 85 298 54 372 -9 21 -34
50 -59 68 -24 17 -50 47 -59 66 -19 42 -27 35 -58 -49 -24 -67 -28 -155 -7
-195 8 -15 37 -48 65 -73 47 -43 51 -50 51 -93 0 -54 -33 -127 -77 -168 -41
-39 -111 -67 -200 -79 -76 -11 -195 -3 -193 13 1 8 140 301 146 307 2 2 16 -1
30 -8 30 -13 39 -5 70 58 44 91 27 163 -52 223 -37 28 -57 50 -61 70 -3 15 -9
28 -13 28 -4 0 -21 -31 -39 -68 -39 -86 -42 -164 -9 -223 12 -22 25 -39 30
-39 18 0 4 -40 -61 -174 -90 -184 -82 -174 -121 -146 -46 33 -73 98 -64 155 6
42 18 64 88 164 30 42 44 109 32 155 -4 16 -33 47 -71 77 -38 30 -65 58 -65
69 0 31 -18 32 -33 3z"/>
<path d="M9239 7146 c-28 -59 -31 -74 -27 -137 4 -70 5 -72 48 -110 25 -21 55
-48 68 -59 39 -34 23 -114 -39 -185 -52 -58 -7 -42 47 18 108 118 147 274 91
361 -9 13 -42 44 -74 68 -38 29 -59 52 -61 68 -7 50 -22 43 -53 -24z"/>
<path d="M2268 7180 c-74 -111 -67 -274 12 -315 l28 -15 -31 -57 -32 -58 -3
-237 c-4 -256 -1 -266 46 -215 37 39 44 103 27 249 -19 161 -19 209 -1 252 25
60 43 66 207 66 204 0 189 26 189 -322 0 -249 1 -269 17 -266 26 5 61 63 68
112 5 28 -4 112 -23 236 l-29 194 23 50 c47 101 22 206 -56 233 -22 7 -102 12
-211 12 -196 1 -197 1 -209 69 l-6 37 -16 -25z"/>
<path d="M1554 7165 c-23 -35 -44 -112 -44 -159 0 -52 37 -127 70 -143 18 -9
91 -13 247 -13 220 0 222 0 250 -24 25 -22 28 -31 28 -88 0 -108 -48 -150
-218 -194 -100 -25 -124 -39 -163 -90 -33 -43 -44 -132 -24 -204 l12 -45 19
37 c22 44 56 71 163 129 99 55 179 131 211 201 73 159 43 439 -53 505 -24 16
-52 18 -232 20 -225 3 -230 5 -230 65 0 35 -14 36 -36 3z"/>
<path d="M4796 7168 c-27 -41 -49 -143 -42 -190 8 -56 39 -106 72 -118 14 -6
103 -10 198 -10 166 0 173 -1 193 -22 56 -62 58 -213 4 -280 -18 -22 -26 -23
-189 -28 -151 -4 -174 -7 -199 -25 -34 -26 -80 -115 -86 -172 l-5 -43 194 0
193 0 36 31 c43 38 99 152 115 236 19 94 8 322 -18 403 -27 83 -65 128 -117
140 -22 5 -97 10 -166 10 -139 0 -150 4 -151 59 -1 37 -12 39 -32 9z"/>
<path d="M5727 7170 c-65 -100 -62 -243 8 -298 26 -21 38 -22 211 -22 171 0
185 -1 204 -20 19 -19 20 -33 20 -295 0 -294 1 -302 48 -252 50 54 53 113 16
349 l-27 167 21 48 c32 76 37 118 18 168 -29 75 -43 80 -266 83 -138 1 -198 6
-207 15 -6 6 -16 28 -20 47 l-9 35 -17 -25z"/>
<path d="M6671 7153 c-10 -21 -24 -64 -31 -96 -10 -48 -9 -66 5 -112 18 -64
56 -95 116 -95 l36 0 -26 -52 c-38 -77 -40 -177 -6 -259 5 -13 -2 -20 -28 -28
-65 -22 -107 -93 -107 -181 l0 -50 120 0 120 0 20 33 c45 74 38 139 -25 231
-24 35 -51 78 -60 96 -21 41 -21 123 0 173 l15 37 195 0 c233 0 215 15 204
-170 -11 -193 -11 -420 1 -420 21 0 59 49 70 91 10 36 8 82 -9 249 -12 113
-21 253 -21 311 0 94 -3 110 -22 139 -13 19 -36 37 -53 42 -16 4 -113 8 -215
8 -102 -1 -195 -1 -207 0 -30 0 -53 26 -53 61 0 40 -16 36 -39 -8z"/>
<path d="M7411 7152 c-57 -112 -40 -257 35 -290 16 -8 89 -12 199 -12 l173 0
31 -30 c68 -69 66 -197 -4 -267 l-33 -33 -149 0 c-134 0 -153 -2 -193 -22 -53
-27 -90 -92 -98 -168 l-5 -50 248 0 c232 0 250 1 281 20 41 26 71 87 80 163
l7 57 -63 0 -63 0 20 23 c51 55 74 139 74 267 0 98 -18 166 -56 215 -46 61
-71 68 -258 74 -181 6 -187 8 -187 64 0 38 -16 34 -39 -11z"/>
<path d="M1612 6787 c-11 -12 -31 -45 -44 -72 -22 -49 -23 -59 -26 -402 -2
-194 1 -353 6 -353 16 0 52 41 73 82 34 67 34 133 0 370 -35 241 -34 276 10
341 16 23 29 45 29 50 0 15 -27 6 -48 -16z"/>
<path d="M5746 6667 c-40 -52 -46 -87 -46 -254 0 -169 5 -180 54 -123 42 50
44 84 15 247 -11 59 -10 78 1 112 17 54 8 61 -24 18z"/>
<path d="M1633 5911 c-13 -15 -21 -18 -35 -10 -57 30 -111 -19 -112 -102 -1
-70 13 -79 131 -79 88 0 94 -1 102 -22 15 -40 -2 -62 -78 -99 -80 -39 -106
-71 -95 -114 7 -30 6 -30 36 -5 12 10 43 34 67 52 74 56 86 78 86 168 0 107
-11 118 -119 122 -80 3 -81 3 -84 30 -5 41 25 52 74 28 50 -26 76 -25 102 3
17 18 19 26 10 35 -18 18 -66 14 -85 -7z"/>
<path d="M3973 5911 c-13 -15 -21 -18 -35 -10 -30 16 -69 6 -91 -23 -24 -32
-29 -119 -9 -140 8 -8 51 -15 115 -18 l102 -5 3 -32 c4 -39 -22 -65 -90 -90
-71 -25 -101 -68 -82 -117 5 -12 16 -8 57 21 80 56 105 83 123 130 19 50 14
131 -11 169 -14 22 -22 24 -95 24 -66 0 -81 3 -89 18 -23 43 39 70 83 37 28
-21 69 -19 89 5 21 25 22 36 1 44 -29 11 -54 6 -71 -13z"/>
<path d="M1838 5894 c-11 -23 -10 -29 10 -44 27 -22 27 -30 1 -64 -11 -14 -16
-26 -11 -26 14 0 50 42 61 73 l11 28 21 -20 21 -20 -23 -32 c-14 -20 -17 -30
-8 -27 8 2 24 20 37 38 42 62 12 150 -36 107 -17 -16 -21 -16 -32 -2 -19 22
-39 18 -52 -11z"/>
<path d="M9012 5908 c-18 -18 -14 -46 8 -60 25 -16 25 -29 -1 -62 -11 -14 -16
-26 -11 -26 14 0 50 42 61 73 l11 28 21 -20 21 -20 -21 -30 c-16 -23 -18 -29
-7 -25 9 3 25 21 36 40 39 61 8 142 -38 101 -17 -16 -21 -16 -32 -2 -15 18
-32 19 -48 3z"/>
<path d="M2075 5836 c-20 -47 -13 -79 21 -103 27 -18 39 -31 103 -104 l33 -39
-39 0 c-59 0 -102 -18 -118 -51 -8 -15 -15 -33 -15 -39 0 -6 42 -10 118 -10
113 0 119 1 129 23 14 30 1 59 -38 90 l-33 25 36 40 c44 49 56 93 34 127 -8
13 -24 26 -35 30 -11 3 -23 16 -27 27 -6 21 -7 21 -20 -3 -23 -41 -18 -90 13
-114 21 -17 25 -27 19 -48 -3 -14 -16 -29 -28 -33 -33 -10 -58 27 -58 86 0 42
-4 52 -32 75 -18 15 -36 35 -39 44 -5 12 -11 6 -24 -23z"/>
<path d="M3026 5838 c-23 -53 -20 -64 20 -104 34 -35 41 -63 17 -71 -17 -6
-180 144 -187 173 -8 31 -21 24 -36 -21 -10 -31 -9 -41 8 -76 16 -31 18 -47
11 -66 -5 -13 -8 -50 -8 -82 1 -31 -2 -67 -5 -79 -7 -20 -4 -22 33 -23 23 -1
46 -2 53 -3 6 -1 16 12 21 27 11 33 -13 77 -41 77 -10 0 -23 5 -30 12 -14 14
-16 74 -2 83 14 9 199 -154 206 -182 9 -33 21 -29 34 11 14 42 5 77 -25 106
l-23 22 24 41 c29 52 31 100 4 127 -11 11 -25 20 -30 20 -6 0 -15 10 -19 23
-9 21 -10 20 -25 -15z"/>
<path d="M5462 5846 c-19 -41 -15 -83 10 -106 12 -11 25 -20 30 -20 14 0 9
-45 -9 -70 -14 -22 -12 -21 16 5 61 56 64 140 7 166 -13 6 -28 20 -33 31 -8
19 -9 19 -21 -6z"/>
<path d="M6955 5836 c-20 -48 -13 -82 23 -103 l27 -15 -3 -181 -3 -181 20 18
c26 23 27 81 6 211 l-15 89 26 49 c23 45 24 51 10 72 -9 13 -25 26 -36 30 -12
4 -25 16 -30 28 -7 20 -9 19 -25 -17z"/>
<path d="M7156 5836 c-23 -51 -14 -82 29 -108 l35 -20 -1 -107 c-1 -133 -2
-126 17 -110 14 11 15 24 9 79 -10 79 -10 120 0 181 7 45 6 47 -28 68 -20 12
-38 30 -40 39 -3 12 -9 5 -21 -22z"/>
<path d="M7542 5846 c-21 -46 -15 -83 18 -113 28 -24 40 -66 23 -76 -14 -8
-178 142 -191 174 -17 40 -32 27 -39 -33 -4 -33 -1 -49 15 -68 17 -21 18 -27
6 -56 -9 -21 -12 -49 -8 -78 4 -24 2 -58 -4 -75 l-11 -31 39 0 c21 0 45 -3 54
-6 19 -7 31 34 22 71 -5 18 -15 27 -37 32 -18 3 -35 15 -41 29 -11 23 -4 74
10 74 15 0 192 -162 206 -188 l14 -27 11 28 c18 47 13 86 -15 114 l-25 25 27
52 c33 62 28 99 -16 124 -16 9 -33 25 -37 36 -8 17 -10 16 -21 -8z"/>
<path d="M8824 5835 c-20 -50 -18 -62 21 -102 19 -20 35 -40 35 -45 0 -22 -33
-69 -58 -82 -35 -18 -114 -30 -141 -21 -20 6 -20 8 12 71 24 49 35 63 49 59
20 -7 38 21 38 59 0 32 -59 90 -76 75 -22 -18 -26 -65 -9 -99 15 -30 15 -32
-17 -90 -18 -33 -38 -60 -45 -60 -7 0 -20 11 -29 25 -18 28 -12 57 22 98 34
40 30 68 -12 105 -20 18 -37 32 -39 32 -2 0 -9 -16 -15 -36 -14 -43 -7 -80 20
-94 17 -9 18 -14 9 -32 -15 -27 -7 -122 14 -171 l16 -38 93 3 93 3 49 98 c35
69 51 114 54 150 4 49 2 54 -33 90 l-36 37 -15 -35z"/>
<path d="M9385 5836 c-21 -50 -14 -77 30 -110 44 -34 47 -71 7 -109 -15 -15
-33 -27 -40 -27 -24 0 -52 77 -52 141 0 59 -2 64 -37 96 -38 36 -46 34 -59
-14 -10 -37 4 -72 38 -93 26 -15 87 -114 88 -142 0 -3 -15 -11 -34 -18 -45
-14 -76 -49 -83 -94 -3 -20 -3 -36 1 -36 22 0 128 64 153 93 38 44 73 134 80
208 5 53 4 56 -28 83 -19 16 -37 36 -40 45 -5 12 -11 6 -24 -23z"/>
<path d="M2421 5843 c-26 -50 -5 -123 36 -123 13 0 13 -3 3 -15 -10 -12 -11
-42 -6 -117 3 -56 8 -104 11 -106 2 -3 12 1 21 9 18 15 16 64 -7 142 -15 55
-6 80 32 86 28 4 39 17 39 48 0 32 -26 53 -66 53 -27 0 -37 5 -43 22 l-8 22
-12 -21z"/>
<path d="M3226 5827 c-19 -43 -13 -83 14 -97 10 -6 55 -10 100 -10 l80 0 -15
-24 c-12 -18 -15 -46 -13 -122 3 -95 4 -97 21 -79 16 16 18 28 12 100 -9 99
-2 125 30 125 36 0 49 55 19 84 -12 12 -38 16 -115 16 -94 0 -100 1 -108 23
-9 21 -10 20 -25 -16z"/>
<path d="M3611 5837 c-26 -66 -3 -117 53 -117 31 0 46 -29 46 -89 l0 -38 -50
-7 c-42 -6 -52 -11 -65 -36 -27 -52 -22 -60 45 -60 73 0 79 8 82 117 4 180 -4
213 -56 213 -14 0 -27 9 -33 23 -11 22 -11 22 -22 -6z"/>
<path d="M4762 5834 c-17 -36 -15 -68 7 -95 17 -22 17 -28 5 -49 -16 -29 -20
-210 -4 -210 22 0 30 41 24 124 -9 111 -5 116 92 116 91 0 96 -7 94 -128 -2
-123 -3 -117 16 -101 14 12 15 26 9 94 -9 91 -9 116 0 166 11 57 -9 69 -115
69 -77 0 -91 3 -103 20 -14 20 -14 19 -25 -6z"/>
<path d="M5110 5826 c-14 -45 0 -81 45 -107 19 -12 35 -24 35 -29 0 -4 18 -28
41 -54 41 -47 41 -50 2 -46 -12 0 -40 -4 -63 -10 -33 -9 -44 -18 -56 -45 -8
-19 -14 -37 -14 -40 0 -3 53 -5 118 -5 113 0 119 1 129 23 14 29 2 58 -37 91
l-33 27 31 32 c36 37 55 83 48 112 -3 12 -23 36 -45 53 -38 31 -41 31 -51 13
-19 -36 -12 -79 17 -105 23 -22 26 -29 17 -53 -23 -67 -84 -25 -84 58 0 41 -4
50 -41 82 -22 21 -42 37 -44 37 -2 0 -8 -15 -15 -34z"/>
<path d="M5861 5842 c-6 -11 -11 -37 -11 -57 0 -29 5 -39 30 -53 34 -19 38
-45 13 -82 l-17 -25 23 20 c13 11 32 37 43 58 24 48 17 89 -20 113 -15 10 -32
24 -38 33 -10 13 -13 12 -23 -7z"/>
<path d="M6066 5828 c-12 -29 -13 -43 -5 -65 15 -39 24 -43 116 -43 93 0 113
-11 113 -64 0 -54 -15 -63 -108 -68 -91 -5 -115 -18 -127 -70 l-7 -28 120 0
c119 0 121 0 142 27 23 30 23 67 0 69 -8 1 -18 2 -23 3 -4 0 -1 11 7 24 22 33
30 100 16 141 -17 54 -42 66 -133 66 -71 0 -78 2 -86 23 -9 21 -10 20 -25 -15z"/>
<path d="M6426 5827 c-17 -38 -13 -81 8 -95 6 -4 52 -9 101 -12 l90 -5 -4
-117 c-3 -118 4 -144 29 -98 15 29 2 268 -16 298 -13 20 -22 22 -95 22 -73 0
-80 2 -88 23 -9 21 -10 20 -25 -16z"/>
<path d="M7760 5845 c-8 -10 -15 -35 -15 -57 0 -46 22 -68 66 -68 37 0 59 -24
59 -64 0 -41 -26 -66 -68 -66 -35 0 -72 -39 -72 -76 0 -21 5 -24 38 -24 35 0
38 3 61 55 13 30 27 55 32 55 5 0 9 -27 9 -60 0 -63 13 -77 31 -36 8 18 7 41
-5 94 -9 39 -16 98 -16 131 0 68 -15 91 -61 91 -21 0 -32 6 -37 21 -8 19 -9
20 -22 4z"/>
<path d="M8012 5834 c-17 -37 -15 -79 6 -97 13 -12 42 -17 107 -19 l90 -3 3
-117 c1 -65 6 -118 11 -118 26 0 34 32 26 103 -10 88 -10 121 0 168 12 57 -8
69 -115 69 -77 0 -91 3 -103 20 -14 20 -14 19 -25 -6z"/>
<path d="M4381 5832 c-17 -31 -13 -77 7 -95 15 -14 40 -17 123 -17 114 0 129
-6 129 -52 0 -34 -28 -54 -102 -73 -62 -17 -88 -44 -88 -91 0 -37 10 -43 30
-19 7 8 39 29 71 47 78 41 104 82 104 165 0 47 -5 68 -21 90 -20 27 -25 28
-119 31 -77 2 -101 6 -110 19 -11 15 -13 15 -24 -5z"/>
<path d="M4404 5679 c-17 -18 -19 -41 -22 -171 -3 -123 -1 -149 10 -146 7 3
19 16 27 30 13 22 13 42 1 142 -10 88 -10 122 -2 141 14 31 11 31 -14 4z"/>
<path d="M8020 5631 c-13 -26 -13 -151 0 -151 21 0 32 53 21 97 -6 23 -8 49
-5 57 9 23 -3 20 -16 -3z"/>
</g>
</svg>
