<?xml version="1.0" standalone="no"?>
<!DOCTYPE svg PUBLIC "-//W3C//DTD SVG 20010904//EN"
 "http://www.w3.org/TR/2001/REC-SVG-20010904/DTD/svg10.dtd">
<svg version="1.0" xmlns="http://www.w3.org/2000/svg"
 width="531.000000pt" height="295.000000pt" viewBox="0 0 531.000000 295.000000"
 preserveAspectRatio="xMidYMid meet">
<g transform="translate(0.000000,295.000000) scale(0.100000,-0.100000)"
fill="#000000" stroke="none">
<path d="M2385 2187 c-22 -13 -95 -58 -162 -100 l-122 -76 -103 -3 -103 -3 -3
-62 -3 -62 -64 -41 -65 -40 0 -50 c0 -28 2 -50 4 -50 5 0 82 47 336 205 296
185 317 197 334 193 8 -1 78 -63 155 -136 l141 -134 0 62 0 63 -97 92 c-147
137 -179 165 -194 165 -8 0 -32 -11 -54 -23z"/>
<path d="M1894 2086 c-3 -8 -4 -23 -2 -33 3 -16 14 -18 93 -18 l90 0 0 30 0
30 -88 3 c-70 2 -88 0 -93 -12z"/>
<path d="M2407 2073 c-4 -3 -7 -132 -7 -285 l0 -278 45 0 45 0 1 48 c1 26 1
55 0 65 -2 15 7 17 63 17 l66 0 0 -65 c0 -63 1 -65 25 -65 l25 0 0 173 0 173
-45 44 c-36 35 -45 40 -44 25 1 -11 1 -68 1 -127 -2 -101 -3 -108 -22 -108
-19 0 -20 7 -22 108 -1 59 0 123 1 143 2 32 -4 43 -51 88 -52 49 -68 58 -81
44z m231 -410 c3 -10 -17 -13 -77 -13 -66 0 -81 3 -81 15 0 13 13 15 77 13 50
-2 78 -7 81 -15z"/>
<path d="M2233 1964 l-123 -76 0 -279 0 -279 40 0 c39 0 40 1 40 34 0 32 16
59 39 68 6 2 11 64 12 147 l1 144 -26 16 c-23 14 -26 22 -26 72 0 41 5 60 18
72 27 25 32 21 32 -21 0 -46 14 -62 55 -62 41 0 55 16 55 63 0 31 3 38 15 33
13 -4 15 7 15 69 0 54 -4 75 -12 75 -7 0 -68 -35 -135 -76z"/>
<path d="M1958 1792 l-128 -77 0 -282 0 -283 74 0 74 0 6 30 c3 17 9 73 12
124 l7 92 -29 12 c-16 6 -38 12 -49 14 -18 3 -20 12 -23 100 -2 82 1 106 19
150 28 66 26 63 43 49 8 -7 19 -10 25 -7 5 3 12 0 14 -6 3 -8 6 -6 6 5 1 18
16 23 25 8 4 -5 18 -5 34 1 27 11 28 13 24 72 -2 34 -4 64 -5 68 -1 4 -59 -27
-129 -70z"/>
<path d="M2333 1744 c-48 -28 -59 -43 -15 -20 30 16 70 45 62 46 -3 0 -24 -12
-47 -26z"/>
<path d="M2707 1738 c-3 -22 0 -37 9 -44 8 -6 14 -25 14 -43 0 -30 2 -31 40
-31 l40 0 0 75 0 75 -49 0 c-47 0 -49 -1 -54 -32z"/>
<path d="M2860 1730 l0 -39 63 -3 62 -3 3 -92 3 -93 39 0 40 0 0 115 c0 148
-6 155 -127 155 l-83 0 0 -40z"/>
<path d="M3118 1734 c-3 -29 0 -38 15 -43 10 -4 18 -10 18 -14 -1 -4 -1 -45
-1 -92 l0 -85 35 0 35 0 0 135 0 135 -49 0 c-49 0 -49 0 -53 -36z"/>
<path d="M3276 1754 c-11 -27 -6 -54 8 -54 16 0 46 -26 46 -41 0 -5 -8 -9 -18
-9 -14 0 -21 -15 -34 -75 l-15 -75 38 0 c36 0 37 1 44 43 13 74 19 76 60 14
38 -57 38 -57 87 -57 l50 0 -36 50 c-41 57 -43 66 -18 72 13 4 22 23 31 64 8
32 16 65 18 72 4 8 -7 12 -36 12 -32 0 -41 -4 -42 -17 0 -10 -6 -36 -12 -57
l-12 -39 -38 56 c-35 53 -40 57 -76 57 -26 0 -41 -5 -45 -16z"/>
<path d="M2363 1733 c-10 -3 -13 -44 -13 -153 0 -122 3 -149 15 -154 13 -5 15
16 15 154 0 88 -1 160 -2 159 -2 0 -9 -3 -15 -6z"/>
<path d="M2056 1691 c-4 -6 -13 -8 -21 -5 -10 4 -18 -4 -26 -22 -10 -28 -11
-28 -25 -10 -8 11 -14 24 -14 29 0 17 -33 -17 -45 -47 -21 -50 -12 -56 81 -56
l84 0 0 43 c-1 43 -23 87 -34 68z"/>
<path d="M2305 1668 c-10 -24 -1 -178 10 -178 13 0 19 170 6 183 -7 7 -12 5
-16 -5z"/>
<path d="M2510 1565 c0 -30 5 -55 10 -55 6 0 10 25 10 55 0 30 -4 55 -10 55
-5 0 -10 -25 -10 -55z"/>
<path d="M2547 1613 c-4 -3 -7 -28 -7 -55 0 -34 4 -48 14 -48 9 0 15 15 18 45
4 60 -4 80 -25 58z"/>
<path d="M2589 1608 c-8 -74 -6 -98 7 -98 10 0 14 14 14 55 0 30 -4 55 -10 55
-5 0 -11 -6 -11 -12z"/>
<path d="M1915 1470 c-3 -5 0 -13 8 -16 24 -9 172 0 170 11 -4 14 -170 19
-178 5z"/>
<path d="M2066 1394 c-9 -9 -15 -24 -12 -33 2 -9 8 -49 11 -89 11 -117 23
-141 25 -49 4 202 4 200 -24 171z"/>
<path d="M2460 1366 c0 -14 5 -28 10 -31 16 -10 12 -75 -5 -81 -8 -4 -15 -17
-15 -30 0 -21 4 -24 40 -24 l40 0 0 70 0 70 30 0 30 0 0 -71 0 -70 28 3 27 3
0 83 c0 63 -4 85 -15 92 -8 5 -50 10 -92 10 -76 0 -78 -1 -78 -24z"/>
<path d="M2677 1384 c-11 -11 -8 -44 3 -44 6 0 10 -30 10 -70 l0 -70 29 0 29
0 -2 93 -2 92 -30 3 c-16 2 -33 0 -37 -4z"/>
<path d="M2790 1365 c0 -24 3 -25 53 -25 30 0 56 -2 59 -5 5 -5 1 -34 -17
-112 -5 -20 -1 -23 23 -23 29 0 30 2 46 83 9 45 16 88 16 95 0 9 -25 12 -90
12 -89 0 -90 0 -90 -25z"/>
<path d="M3006 1374 c-9 -25 -7 -34 8 -34 11 0 14 -15 15 -60 0 -71 4 -80 38
-80 25 0 25 1 19 50 -4 28 -9 57 -13 66 -4 10 2 17 15 21 15 4 21 12 20 29 -2
22 -7 24 -49 24 -34 0 -49 -5 -53 -16z"/>
<path d="M3140 1296 l0 -96 30 0 30 0 0 70 c0 68 1 70 25 70 30 0 33 -7 37
-80 3 -52 5 -55 31 -58 l27 -3 0 78 c0 43 -5 85 -10 93 -6 11 -32 16 -90 18
l-80 4 0 -96z"/>
<path d="M3360 1381 c0 -5 -3 -16 -6 -25 -4 -10 -1 -16 9 -16 8 0 20 -6 26
-14 10 -11 9 -16 -2 -23 -13 -7 -37 -70 -37 -95 0 -5 11 -8 24 -8 24 0 36 16
36 51 0 29 15 23 41 -16 19 -28 31 -35 57 -35 l32 0 -25 40 c-19 31 -22 41
-11 47 13 8 36 65 36 89 0 8 -11 14 -25 14 -20 0 -25 -6 -31 -35 -3 -19 -10
-35 -14 -35 -5 0 -18 16 -30 35 -17 27 -28 35 -51 35 -16 0 -29 -4 -29 -9z"/>
<path d="M2253 1353 c-30 -12 -9 -23 43 -23 49 0 55 2 44 15 -12 14 -61 19
-87 8z"/>
<path d="M2797 1293 c-2 -5 -4 -39 -3 -78 2 -68 3 -70 29 -73 l27 -3 0 80 c0
79 -1 81 -24 81 -14 0 -27 -3 -29 -7z"/>
<path d="M1824 1086 c-3 -7 -4 -46 -2 -87 l3 -74 500 0 500 0 0 55 c0 49 -2
55 -22 58 -33 5 -28 24 5 20 26 -3 27 -5 30 -70 l3 -68 139 0 140 0 0 50 c0
28 5 50 10 50 6 0 10 -22 10 -50 l0 -49 198 2 197 2 0 85 0 85 -853 2 c-678 1
-854 -1 -858 -11z m1082 -26 c24 0 25 -3 22 -47 -3 -43 -6 -48 -28 -50 -14 -2
-19 0 -10 4 21 8 30 24 30 51 0 17 -6 22 -24 22 -28 0 -41 14 -30 32 6 9 9 9
12 0 2 -7 15 -12 28 -12z m-962 -16 c9 -25 7 -72 -4 -79 -6 -4 -10 10 -10 34
0 34 -3 41 -20 41 -17 0 -20 -7 -20 -40 0 -35 -3 -40 -22 -39 -13 0 -17 3 -10
6 7 3 12 23 12 49 0 43 0 44 34 44 22 0 36 -6 40 -16z m46 -36 c0 -28 -2 -49
-4 -47 -8 9 -13 99 -5 99 5 0 9 -23 9 -52z m90 0 l6 -48 -41 2 c-36 1 -37 2
-7 5 29 4 32 7 32 39 0 30 -3 34 -25 34 -14 0 -25 5 -25 11 0 6 12 9 28 7 24
-3 28 -8 32 -50z m50 2 c0 -27 -4 -50 -10 -50 -5 0 -10 23 -10 50 0 28 5 50
10 50 6 0 10 -22 10 -50z m50 -1 c0 -33 3 -40 18 -37 10 2 18 14 20 31 3 22 0
26 -15 20 -17 -6 -17 -5 1 15 27 31 36 27 36 -12 0 -54 -8 -66 -46 -66 l-34 0
0 51 c0 31 4 48 10 44 6 -3 10 -24 10 -46z m208 -2 l3 -48 -38 3 c-35 3 -38 6
-41 36 -5 52 3 64 40 60 32 -3 33 -5 36 -51z m48 38 c6 -14 -3 -52 -10 -44 -2
2 -6 16 -10 32 -7 29 10 39 20 12z m43 -17 c-1 -22 -3 -26 -6 -13 -3 11 -10
26 -15 33 -8 9 -6 12 6 12 12 0 16 -9 15 -32z m83 -15 c-6 -61 -12 -68 -12
-15 0 35 -3 42 -19 42 -11 0 -23 5 -26 10 -4 6 8 10 28 10 l35 0 -6 -47z m56
14 c2 -15 -1 -27 -7 -27 -6 0 -11 6 -11 14 0 8 -3 22 -7 32 -4 12 -2 15 8 12
8 -2 15 -17 17 -31z m84 -17 l3 -50 -35 1 c-30 2 -31 3 -7 6 23 4 27 9 27 39
0 30 -3 34 -25 34 -14 0 -25 5 -25 10 0 6 13 10 29 10 28 0 29 -2 33 -50z
m271 15 c5 -19 5 -19 12 3 4 12 12 22 17 22 5 0 6 -10 3 -22 -4 -13 -9 -31
-12 -42 -3 -12 -1 -17 8 -14 8 2 18 23 23 46 12 52 31 56 21 5 -9 -47 -21 -63
-51 -63 -23 0 -27 7 -39 70 -8 37 9 33 18 -5z m227 29 c0 -20 -24 -94 -30 -94
-5 0 -4 15 1 32 13 47 12 48 -21 48 -16 0 -30 5 -30 10 0 6 18 10 40 10 22 0
40 -3 40 -6z m100 -31 c0 -33 -22 -73 -41 -73 -20 0 -39 35 -39 71 0 39 0 39
40 39 39 0 40 -1 40 -37z m46 -14 c9 -52 29 -45 28 10 -1 40 8 52 21 31 4 -6
4 -29 0 -50 -6 -38 -8 -40 -43 -40 -22 0 -32 4 -25 8 10 6 10 17 3 42 -13 44
-13 53 0 45 5 -3 13 -24 16 -46z m140 -4 c1 -45 1 -46 -3 -7 -4 36 -7 42 -28
42 -13 0 -27 5 -30 11 -5 7 5 9 26 7 33 -3 34 -4 35 -53z m-46 -21 c0 -13 -4
-24 -10 -24 -5 0 -10 14 -10 31 0 17 4 28 10 24 6 -3 10 -17 10 -31z"/>
<path d="M2330 1005 c0 -28 4 -35 20 -35 16 0 20 7 20 35 0 28 -4 35 -20 35
-16 0 -20 -7 -20 -35z"/>
<path d="M3238 1005 c3 -26 9 -35 23 -35 15 0 19 7 19 35 0 30 -3 35 -23 35
-20 0 -23 -4 -19 -35z"/>
<path d="M1837 853 c-10 -9 -8 -75 2 -91 14 -23 53 -10 64 21 15 45 2 77 -32
77 -15 0 -31 -3 -34 -7z m43 -49 c0 -13 -4 -24 -10 -24 -5 0 -10 14 -10 31 0
17 4 28 10 24 6 -3 10 -17 10 -31z"/>
<path d="M1950 846 c0 -8 -3 -21 -6 -30 -4 -11 0 -16 14 -16 12 0 24 -4 27
-10 4 -6 -5 -10 -19 -10 -16 0 -26 -6 -26 -15 0 -10 10 -15 30 -15 42 0 58 37
28 63 -17 14 -17 17 -4 17 9 0 16 7 16 15 0 10 -10 15 -30 15 -19 0 -30 -5
-30 -14z"/>
<path d="M2057 853 c-10 -9 -8 -75 2 -91 4 -8 19 -12 32 -10 52 7 48 108 -4
108 -13 0 -27 -3 -30 -7z m43 -49 c0 -13 -4 -24 -10 -24 -5 0 -10 14 -10 31 0
17 4 28 10 24 6 -3 10 -17 10 -31z"/>
<path d="M2260 845 c0 -11 5 -15 15 -12 24 10 28 -13 6 -37 -30 -32 -26 -46
14 -46 24 0 35 5 35 15 0 8 -7 15 -17 15 -15 0 -15 2 1 19 27 29 17 55 -22 59
-24 3 -32 -1 -32 -13z"/>
<path d="M2370 845 c0 -8 7 -15 16 -15 11 0 14 -5 10 -16 -3 -9 -9 -27 -12
-40 -10 -40 20 -28 34 14 27 77 27 72 -12 72 -25 0 -36 -4 -36 -15z"/>
<path d="M2480 846 c0 -9 6 -13 14 -10 24 9 29 -17 7 -40 -30 -32 -26 -46 14
-46 24 0 35 5 35 15 0 8 -7 15 -17 15 -15 0 -15 2 1 19 27 29 17 55 -22 59
-23 2 -32 -1 -32 -12z"/>
<path d="M2590 845 c0 -8 7 -15 16 -15 11 0 14 -5 10 -16 -3 -9 -9 -27 -12
-40 -10 -40 20 -28 34 14 27 77 27 72 -12 72 -25 0 -36 -4 -36 -15z"/>
<path d="M2700 830 c0 -23 5 -30 19 -30 11 0 23 -4 26 -10 4 -6 -5 -10 -19
-10 -16 0 -26 -6 -26 -15 0 -15 26 -20 54 -9 21 8 21 53 0 61 -15 5 -15 7 0
15 27 15 18 28 -19 28 -32 0 -35 -2 -35 -30z"/>
<path d="M2810 845 c0 -11 5 -15 15 -12 24 10 28 -13 6 -37 -30 -32 -26 -46
14 -46 24 0 35 5 35 15 0 8 -7 15 -17 15 -15 0 -15 2 1 19 27 29 17 55 -22 59
-24 3 -32 -1 -32 -13z"/>
<path d="M2935 836 c-9 -14 -15 -37 -13 -53 3 -24 8 -28 33 -28 27 0 30 4 33
33 2 24 -1 32 -12 32 -19 0 -21 11 -4 28 9 9 8 12 -5 12 -9 0 -24 -11 -32 -24z
m33 -47 c-2 -6 -8 -10 -13 -10 -5 0 -11 4 -13 10 -2 6 4 11 13 11 9 0 15 -5
13 -11z"/>
<path d="M3157 853 c-15 -14 -6 -23 23 -23 28 0 30 -2 30 -40 0 -29 4 -40 15
-40 22 0 21 95 -1 104 -21 8 -59 8 -67 -1z"/>
<path d="M3275 823 c12 -69 14 -73 48 -73 47 0 59 12 64 64 5 38 3 46 -11 46
-12 0 -16 -10 -16 -40 0 -37 -2 -40 -27 -39 -17 1 -21 3 -10 6 9 2 17 10 17
16 0 7 3 22 6 35 5 16 2 22 -10 22 -11 0 -16 -9 -17 -27 l-1 -28 -11 28 c-17
42 -39 35 -32 -10z"/>
<path d="M3432 804 c-1 -40 2 -54 13 -54 9 0 15 13 17 37 2 27 8 39 21 41 12
3 17 -3 17 -22 0 -14 -4 -26 -10 -26 -5 0 -10 -7 -10 -15 0 -9 9 -15 25 -15
23 0 25 4 25 43 0 56 -8 64 -56 64 l-41 0 -1 -53z"/>
<path d="M3086 843 c-11 -11 -6 -23 9 -23 8 0 15 4 15 9 0 13 -16 22 -24 14z"/>
<path d="M2167 814 c-11 -12 3 -24 29 -24 15 0 24 6 24 15 0 15 -40 21 -53 9z"/>
<path d="M3150 780 c0 -20 5 -30 15 -30 10 0 15 10 15 30 0 20 -5 30 -15 30
-10 0 -15 -10 -15 -30z"/>
<path d="M3080 765 c0 -8 7 -15 15 -15 8 0 15 7 15 15 0 8 -7 15 -15 15 -8 0
-15 -7 -15 -15z"/>
</g>
</svg>
