<svg xmlns="http://www.w3.org/2000/svg" viewBox="0 0 1440 320">
<path fill="blue" fill-opacity="1" d="M0,128L30,112C60,96,120,64,180,69.3C240,75,300,117,360,112C420,107,480,53,540,48C600,43,660,85,720,90.7C780,96,840,64,900,80C960,96,1020,160,1080,176C1140,192,1200,160,1260,138.7C1320,117,1380,107,1410,101.3L1440,96L1440,320L1410,320C1380,320,1320,320,1260,320C1200,320,1140,320,1080,320C1020,320,960,320,900,320C840,320,780,320,720,320C660,320,600,320,540,320C480,320,420,320,360,320C300,320,240,320,180,320C120,320,60,320,30,320L0,320Z">
</path>
</svg>